<?xml version="1.0" standalone="no"?>
<!DOCTYPE svg PUBLIC "-//W3C//DTD SVG 20010904//EN"
 "http://www.w3.org/TR/2001/REC-SVG-20010904/DTD/svg10.dtd">
<svg version="1.0" xmlns="http://www.w3.org/2000/svg"
 width="554.000000pt" height="333.000000pt" viewBox="0 0 554.000000 333.000000"
 preserveAspectRatio="xMidYMid meet">

<g transform="translate(0.000000,333.000000) scale(0.100000,-0.100000)"
fill="#000000" stroke="none">
<path d="M4193 3188 c-259 -252 -587 -709 -813 -1131 -28 -53 -58 -97 -66 -97
-23 0 -193 82 -296 143 -418 246 -674 603 -695 970 -3 54 -9 100 -13 102 -4 3
-211 -203 -460 -458 l-453 -462 -72 0 -71 0 -485 -498 c-266 -275 -490 -509
-498 -522 -13 -20 -8 -45 42 -243 32 -122 57 -229 57 -238 0 -10 -50 -65 -111
-122 -75 -72 -107 -108 -100 -115 6 -6 81 -21 168 -33 87 -13 500 -73 918
-134 530 -77 766 -108 780 -102 11 6 84 63 161 128 382 321 558 470 657 553
59 51 107 90 107 87 0 -5 -173 -161 -709 -639 -91 -82 -167 -152 -169 -157 -4
-10 47 -47 71 -52 10 -2 112 66 249 166 597 435 716 516 413 282 -575 -444
-602 -466 -583 -478 33 -21 218 3 318 41 73 27 445 248 1090 646 354 218 450
295 465 371 4 26 15 40 37 52 17 9 52 33 78 52 38 28 847 790 1060 999 54 52
54 53 10 20 -25 -19 -83 -64 -129 -101 -47 -38 -87 -65 -90 -63 -3 3 33 43 79
88 108 105 152 154 125 140 -11 -6 -38 -28 -59 -48 -86 -80 -1149 -961 -1171
-969 -18 -7 -47 -2 -112 17 -48 15 -117 32 -153 38 -77 13 -228 5 -320 -17
-129 -31 -82 -38 -421 69 -289 92 -642 181 -1019 258 -170 35 -603 109 -636
109 -15 0 -163 -135 -503 -460 -264 -253 -484 -460 -489 -460 -5 0 -14 22 -21
49 l-12 48 113 109 c158 153 338 332 308 308 -14 -11 -96 -83 -184 -160 -87
-76 -178 -156 -202 -177 l-44 -38 -10 26 c-5 14 -10 36 -10 48 0 14 99 119
323 340 177 176 306 306 287 290 -19 -16 -141 -123 -270 -238 -330 -292 -300
-267 -260 -220 87 104 877 915 890 915 8 0 48 -11 90 -25 276 -91 605 -194
607 -191 4 4 -118 50 -405 152 -89 32 -162 64 -162 70 0 15 851 877 858 870 2
-3 11 -45 19 -93 75 -471 415 -842 983 -1073 139 -56 193 -84 266 -136 74 -52
118 -106 151 -182 23 -54 24 -55 18 -17 -15 94 -103 194 -233 265 -129 70
-121 53 -70 161 84 178 243 424 457 709 121 162 378 480 386 480 11 0 3 -21
-18 -47 -13 -15 -24 -37 -25 -48 0 -11 -29 -81 -63 -155 -159 -348 -317 -785
-359 -991 -31 -150 -25 -159 39 -55 67 109 233 332 337 451 119 137 340 360
423 427 73 59 76 60 125 56 49 -4 140 -40 180 -70 18 -14 10 -22 -120 -121
-241 -183 -524 -432 -524 -460 0 -6 21 9 48 34 104 99 257 224 437 356 163
119 194 138 206 126 8 -8 1 -18 -23 -35 -193 -142 -431 -323 -463 -353 l-40
-37 40 29 c22 15 110 80 195 144 263 196 329 241 340 234 6 -3 8 -11 5 -16 -3
-5 1 -6 9 -3 9 3 23 3 32 0 15 -6 15 -8 -2 -29 -10 -12 -12 -16 -4 -9 14 12
70 17 70 6 0 -4 -29 -45 -63 -93 -109 -147 -101 -148 17 -3 64 77 86 96 86 71
0 -5 -28 -47 -61 -92 -72 -96 -56 -84 30 23 l61 75 -115 57 c-65 33 -115 64
-115 72 0 38 -128 109 -215 121 -48 6 -53 4 -121 -44 -168 -118 -414 -376
-679 -715 -60 -76 -70 -85 -73 -64 -7 57 102 367 285 812 148 358 166 406 152
406 -6 0 -50 -37 -96 -82z m-2313 -1800 c102 -22 189 -43 193 -48 5 -4 -56 5
-135 21 -185 38 -347 61 -373 53 -45 -14 -265 -202 -258 -221 9 -24 67 -51
223 -103 85 -28 173 -60 195 -70 82 -36 293 -111 374 -131 142 -36 206 -22
355 76 38 25 71 43 73 41 10 -10 -108 -100 -173 -132 -72 -36 -76 -37 -161
-31 -125 7 -258 53 -563 194 -30 13 -102 40 -160 59 -115 37 -163 62 -179 93
-9 17 -6 26 21 57 45 51 175 153 222 174 52 24 116 18 346 -32z"/>
<path d="M4164 3073 c-53 -67 -57 -73 -52 -73 3 0 26 27 52 60 26 33 45 60 43
60 -3 0 -22 -21 -43 -47z"/>
<path d="M4079 2963 c-13 -16 -12 -17 4 -4 16 13 21 21 13 21 -2 0 -10 -8 -17
-17z"/>
<path d="M4012 2878 c-95 -121 -278 -385 -342 -493 -44 -76 -3 -20 92 125 53
80 143 209 202 288 109 147 135 189 48 80z"/>
<path d="M4940 2523 l-95 -98 98 95 c53 52 97 96 97 97 0 8 -12 -4 -100 -94z"/>
<path d="M4930 2569 l-35 -30 38 26 c33 24 43 35 34 35 -1 0 -18 -14 -37 -31z"/>
<path d="M5027 2296 c-115 -91 -266 -213 -335 -273 -144 -122 -329 -299 -322
-306 3 -3 43 26 90 65 47 38 191 149 320 246 273 203 305 231 160 135 -132
-87 -135 -89 -126 -75 4 6 101 90 216 187 184 154 219 185 208 185 -2 0 -97
-74 -211 -164z"/>
<path d="M3630 2320 c-6 -11 -8 -20 -6 -20 3 0 10 9 16 20 6 11 8 20 6 20 -3
0 -10 -9 -16 -20z"/>
<path d="M4560 2263 c-158 -141 -320 -296 -316 -301 3 -2 72 58 153 135 81 77
171 161 198 186 28 26 48 47 45 47 -3 0 -39 -30 -80 -67z"/>
<path d="M4897 2293 c-4 -3 -7 -11 -7 -17 0 -6 5 -5 12 2 6 6 9 14 7 17 -3 3
-9 2 -12 -2z"/>
<path d="M5059 2243 c-13 -16 -12 -17 4 -4 9 7 17 15 17 17 0 8 -8 3 -21 -13z"/>
<path d="M1274 2118 l-29 -32 27 17 c15 9 34 17 42 17 8 0 257 -68 552 -150
295 -83 539 -148 541 -146 3 2 -33 16 -79 29 -230 70 -1008 297 -1015 297 -5
0 -22 -14 -39 -32z"/>
<path d="M1289 1988 c-13 -18 -31 -42 -39 -53 -13 -19 -13 -19 5 -6 11 8 31
25 45 37 l25 23 479 -120 c263 -66 481 -118 483 -115 6 6 -13 12 -522 146
-231 61 -427 113 -436 116 -9 2 -25 -9 -40 -28z"/>
<path d="M1304 1908 c-28 -30 -17 -31 17 -1 14 12 32 10 124 -12 59 -14 110
-23 113 -21 2 3 -16 10 -39 16 -24 7 -75 20 -114 31 -38 10 -70 19 -70 19 -1
0 -14 -14 -31 -32z"/>
<path d="M1578 1863 c7 -3 16 -2 19 1 4 3 -2 6 -13 5 -11 0 -14 -3 -6 -6z"/>
<path d="M2300 1750 c0 -6 7 -10 15 -10 8 0 15 2 15 4 0 2 -7 6 -15 10 -8 3
-15 1 -15 -4z"/>
</g>
</svg>
